<svg xmlns="http://www.w3.org/2000/svg" viewBox="0 0 144 144" height="144" width="144" version="1.1">
  <g transform="matrix(1.25,0,0,-1.25,45.233049,144.20128)">
    <rect transform="scale(1,-1)" y="-115.361" x="-36.186" height="115.2" width="115.2" fill="none"/>
    <g transform="matrix(0.06856996,0,0,0.06856996,-6.1513579,9.7610154)" >
      <path  d="M5.512 1344.95 2.719 1195.93C2.262 1172.75-3.187 626.359 2.762 470.43 12.613 217.91 26.953 77.52 124.398 0L351.121 0C340.266 2.551 329.496 5.48 318.688 9.281 168.926 62.012 142.266 196.379 125.082 483.215c-2.977 49.922-4.484 144.793-4.484 249.543 0 107.57 1.14 225.215 2.332 315.382l455.746-455.745 0 179.355-573.164 573.2M798.48 55.09l2.793 149.031M798.48 55.09l2.793 149.031M798.48 55.09l2.793 149.031c0.461 23.188 5.911 569.551-0.046 725.492-9.844 252.497-24.192 392.907-121.633 470.417l-226.719 0c10.898-2.55 21.66-5.48 32.434-9.27 149.754-52.73 176.425-187.09 193.601-473.947 2.981-49.915 4.492-144.79 4.492-249.536 0-107.57-1.152-225.207-2.343-315.367l-455.739 455.731 0-179.36 573.16-573.191"/>
    </g>
  </g>
</svg>
