<?xml version="1.0" encoding="UTF-8" standalone="no"?>
<svg id="svg2" xmlns="http://www.w3.org/2000/svg" height="240" width="240" version="1.1" viewBox="0 0 240.00001 240.00001">
 <g id="layer1" transform="translate(0 -812.36)">
  <path id="rect4236" d="m50 842.36h140c11.08 0 20 8.92 20 20v140c0 11.08-8.92 20-20 20h-140c-11.08 0-20-8.92-20-20v-140c0-11.08 8.92-20 20-20z" stroke-width="20" fill="none"/>
  <path id="path4138" d="m86.81 876.99h35.392q8.6362 0 15.748 1.524 7.2815 1.3547 12.531 4.5721 5.4188 3.0481 8.2975 8.2975 3.0481 5.2495 3.0481 12.87 0 7.9589-4.7414 14.732-4.5721 6.7735-14.224 9.3136v0.67735q12.023 2.032 18.288 8.6362 6.4348 6.4348 6.4348 17.611 0 8.2975-3.2174 14.394-3.2174 6.0962-8.9749 10.16-5.5881 4.0641-13.378 6.0962-7.7895 1.8627-16.934 1.8627h-38.27v-110.75zm33.698 45.89q11.684 0 16.764-4.2334 5.2495-4.2334 5.2495-12.023 0-7.6202-5.4188-11.007t-16.256-3.3868h-14.394v30.65h14.055zm2.5401 49.616q12.192 0 18.796-4.5721 6.6042-4.5721 6.6042-14.055 0-8.6362-6.4348-12.7-6.4348-4.2334-18.966-4.2334h-16.595v35.561h16.595z" />
 </g>
</svg>
