<?xml version="1.0" encoding="UTF-8" standalone="no"?>
<svg xmlns:rdf="http://www.w3.org/1999/02/22-rdf-syntax-ns#" xmlns="http://www.w3.org/2000/svg" version="1.1" xmlns:cc="http://creativecommons.org/ns#" xmlns:dc="http://purl.org/dc/elements/1.1/" viewBox="0 0 24 24">
 <path d="m14.01 2.0015c-1.9185 0.0272-4.2451 1.091-4.998 2.8555-0.38519 0.90266 0.1495 2.0552 0.71484 2.8574 0.98876 1.403 3.0714 1.6418 4.2852 2.8555 0.60686 0.60687 1.3296 1.29 1.4277 2.1426 0.0445 0.38623-0.006 0.83374-0.11719 1.3047-0.50188-0.97782-1.3712-1.7358-2.4219-2.0976l-5.2602-3.0356c-0.0754-0.18331-0.17754-0.34939-0.31836-0.49023 0.0535-0.10016 0.0898-0.21247 0.0898-0.33399 0-0.39438-0.32047-0.71484-0.71485-0.71484-0.10592 0-0.20452 0.025-0.29492 0.0664-0.12825-0.12283-0.30059-0.20117-0.49219-0.20117-0.39438 0-0.71289 0.32048-0.71289 0.71485 0 0.0555 0.004 0.11028 0.0156 0.1621-0.57446 0.1883-1.1639 0.55059-1.6797 1.0664-1.2549 1.2549-1.5944 2.9505-0.75781 3.7871 0.51275 0.51275 1.3501 0.57859 2.209 0.26758 0.004-0.002 0.008-0.004 0.0117-0.006 0.0199-0.008 0.0379-0.0117 0.0606-0.0117 0.0347 0 0.0683 0.0121 0.0957 0.0293l0.01 0.006c0.008 0.006 0.0168 0.009 0.0234 0.0156l0.28516 0.16211c0.006-0.002 0.006 0.003 0.01 0.006 0.0283 0.015 0.0508 0.0438 0.0508 0.0781 0 0.008-0.004 0.0141-0.006 0.0215-0.0229 0.11142-0.0396 0.22526-0.0449 0.34179l-0.006 0.006c-0.009 0.16176-0.12943 0.29853-0.29492 0.32813-0.002 0-0.004-0.002-0.006 0l-1.3066 0.21875v0.0156c-0.0361 0.002-0.0749 0.006-0.11133 0.0117-0.58387 0.0951-0.98187 0.6427-0.88672 1.2266 0.0951 0.58387 0.64856 0.98187 1.2324 0.88672 0.38742-0.0631 0.68655-0.33285 0.82031-0.67383h0.006c0.0384-0.12068 0.14154-0.21453 0.27344-0.24023h0.0117l0.71289-0.11719c0.005-0.002 0.0121-0.005 0.0176-0.006 0.11023-0.018 0.2174 0.021 0.29493 0.0898h0.0117c0.27756 0.23145 0.60984 0.39348 0.9707 0.46289 0.006 0.30958 0.0489 0.60829 0.11719 0.89844-0.20387 0.44928-0.32422 0.9452-0.32422 1.4707 0 0.41369 0.0774 0.81206 0.20703 1.1816 0.002 0.006 0.004 0.012 0.006 0.0176 0.005 0.017 0.006 0.0378 0.006 0.0566 0 0.091-0.0682 0.16083-0.15625 0.17188h-1.3008-0.0391c-0.57371 0.0203-1.0312 0.4936-1.0312 1.0723 0 0.57866 0.45754 1.05 1.0312 1.0703h0.0391 4.9707v-0.006c1.3582-0.0605 2.5088-0.88505 3.0586-2.0488 2.5415 0.158 4.5896-4.4722 4.4902-7.2324-0.20927-5.8103-6.929-4.9696-4.998-7.1406 1.7556-1.9738 5.1168 4.0727 6.9785 3.7598 2.865-0.4816 1.6309-7.4378-6.2637-7.3301h-0.002zm-9.7441 7.5137c0.29578 0 0.53516 0.23937 0.53516 0.53516 0 0.29578-0.23938 0.53711-0.53516 0.53711s-0.53711-0.24133-0.53711-0.53711c0-0.29579 0.24133-0.53516 0.53711-0.53516z"/>
</svg>
