<?xml version="1.0" encoding="UTF-8" standalone="no"?>
<svg id="svg2" xmlns="http://www.w3.org/2000/svg" height="240" width="240" version="1.1" viewBox="0 0 240.00001 240.00001">
 <g id="layer1" transform="translate(0 -812.36)">
  <path id="rect4236" d="m50 842.36h140c11.08 0 20 8.92 20 20v140c0 11.08-8.92 20-20 20h-140c-11.08 0-20-8.92-20-20v-140c0-11.08 8.92-20 20-20z" stroke-width="20" fill="none"/>
  <path id="path4157" d="m133.89 942.35-3.8948-13.547q-2.7094-8.8056-5.2495-18.119-2.3707-9.3136-4.7414-18.458h-0.67735q-2.3707 9.3136-4.7414 18.627-2.3707 9.1442-5.0801 17.95l-3.8948 13.547h28.279zm4.4028 15.41h-37.254l-8.6362 29.973h-19.982l36.069-110.75h23.03l36.069 110.75h-20.659l-8.6362-29.973z" />
 </g>
</svg>
